<svg width="127" height="121" viewBox="0 0 127 121" fill="none" xmlns="http://www.w3.org/2000/svg">
<path d="M1.853 66.0006C1.67334 64.1745 1.58289 62.3241 1.58165 60.4494C1.58165 60.1137 1.58165 59.778 1.59281 59.444C1.48702 59.9481 1.41193 60.4576 1.36792 60.9699V60.9699C1.36792 62.0748 1.41067 63.1779 1.48129 64.2668C1.57045 64.8511 1.69455 65.4299 1.853 66.0006V66.0006ZM3.31197 45.8247C2.41395 49.1732 1.82317 52.5903 1.54634 56.037C1.54634 56.037 1.54634 56.037 1.55935 56.037C1.61592 56.0672 1.68058 56.0808 1.74521 56.076C2.02642 52.4017 2.66796 48.7608 3.66138 45.2012C3.53301 45.4027 3.41636 45.6108 3.31197 45.8247V45.8247ZM35.8145 7.48369L34.8257 7.73238C34.3165 7.98462 33.6046 8.3541 32.7683 8.81951C30.0183 10.3677 27.4035 12.1255 24.9493 14.0758C23.5975 15.1416 22.26 16.2885 20.9367 17.5166C25.4118 13.4596 30.4944 10.0626 36.0171 7.4375C35.9501 7.45171 35.8814 7.46947 35.8145 7.48369Z" fill="#680813" stroke="#680813" stroke-miterlimit="10"/>
<path d="M63.4753 1C35.7958 1 12.2813 18.371 4.24117 42.3093C1.56832 49.6871 0.530877 57.5158 1.19481 65.2976C1.85874 73.0794 4.20952 80.6441 8.09768 87.5106C8.10279 87.5178 8.10715 87.5256 8.11069 87.5336C8.13671 87.5834 8.16831 87.6349 8.19619 87.6846C12.9067 96.3727 19.7738 103.825 28.1961 109.388C28.7983 109.804 29.3113 110.141 29.7109 110.401C29.8744 110.506 30.0213 110.598 30.1495 110.676C30.3353 110.788 30.471 110.875 30.5695 110.932C30.7275 111.026 30.9004 111.131 31.0899 111.237C31.2052 111.305 31.3241 111.378 31.4505 111.451C31.8445 111.674 32.2943 111.927 32.7961 112.198L33.4707 112.554C33.6566 112.65 33.8425 112.746 34.0283 112.845L34.3666 113.023C34.7383 113.2 35.11 113.396 35.5226 113.589C35.7512 113.698 35.9817 113.808 36.2214 113.918L36.7251 114.149C37.0429 114.295 37.3719 114.438 37.7101 114.584C40.2188 115.67 42.7975 116.602 45.4306 117.373C45.6573 117.44 45.8841 117.506 46.1127 117.57C46.5277 117.689 46.9496 117.803 47.3783 117.915C47.6924 117.995 48.0084 118.075 48.3281 118.149C48.5864 118.217 48.8485 118.277 49.1105 118.339L49.5882 118.446C60.2279 120.858 71.3542 120.456 81.7728 117.282C81.9587 117.231 82.1278 117.176 82.3044 117.121L82.3992 117.091C107.467 109.417 125.67 86.9279 125.67 60.4548C125.676 27.6703 97.7713 1 63.4753 1ZM21.0165 72.431C20.9329 73.1114 20.1672 73.5359 19.5836 73.8645C18.5495 74.4219 17.3767 74.7012 16.1899 74.6728C14.3536 74.6461 13.705 74.0973 10.8446 73.1771C7.2985 72.0349 7.08105 72.4879 5.76147 71.6832C3.71706 70.4397 2.84725 68.4999 2.26924 67.2085C2.10457 66.8145 1.96554 66.4111 1.85292 66.0006C1.69489 65.4335 1.57078 64.8582 1.48121 64.2775V64.2775C1.41059 63.1886 1.37527 62.0855 1.36784 60.9806C1.41185 60.4682 1.48694 59.9588 1.59272 59.4547C1.66335 59.1125 1.75194 58.7667 1.8585 58.4173C2.02444 57.8231 2.28522 57.2569 2.63166 56.7387C3.86574 54.9268 5.82838 54.3512 6.21868 54.2517C6.89705 54.0741 8.94147 53.5057 10.6513 54.5626C12.4764 55.6924 12.9392 58.0585 12.9318 59.2362C12.9318 59.7283 12.9318 60.2683 12.9318 61.3536C12.9459 61.9162 12.99 62.4776 13.0638 63.0359C13.1567 63.8459 13.2366 64.1248 13.4522 64.2207C13.7626 64.3575 14.1956 64.043 14.3016 63.9702C15.6025 63.0305 15.4167 60.8563 15.6025 60.8563C15.6973 60.8563 15.8033 61.4496 15.7884 62.2258C15.7809 63.2027 15.6038 64.1715 15.2643 65.0929L17.5596 67.7024C17.4114 68.0402 17.3891 68.4165 17.4964 68.7682C17.7399 69.4787 18.5038 69.5444 19.5167 70.326C20.0389 70.7222 21.1262 71.5499 21.0165 72.431ZM33.283 37.0068C30.9189 38.7832 29.1514 37.5255 27.2185 38.7832C25.0329 40.2043 24.2021 43.8139 24.8712 46.354C25.2429 47.7751 25.9361 48.2743 25.9473 49.9068C25.9473 51.0419 25.6443 53.0598 24.4809 53.4595C23.2431 53.884 22.1781 52.081 20.7638 52.5216C19.736 52.8449 19.972 53.884 18.9052 54.5786C17.9072 55.2323 15.9148 54.7474 11.9691 53.7473C7.96201 52.7347 7.73155 52.6672 7.14796 52.7525C4.1055 53.1788 2.64653 56.0405 1.75814 56.085C1.69351 56.0897 1.62885 56.0761 1.57228 56.0459C1.57228 56.0459 1.57228 56.0459 1.55927 56.0459C1.83609 52.5992 2.42688 49.1821 3.3249 45.8336V45.8336C3.43074 45.6221 3.54863 45.4163 3.67803 45.2172L3.69661 45.187C4.2294 44.3789 4.87325 43.6428 5.61093 42.9985C6.02555 42.6042 6.49753 42.2692 7.01228 42.0037C8.30027 41.3287 9.25557 41.4477 10.4989 40.2878C11.8836 38.9964 11.2424 38.3533 12.9448 36.4544C13.8713 35.4153 15.0007 34.5585 16.2698 33.932C18.2175 33.0065 18.7509 33.55 20.6708 32.8093C23.2171 31.8287 22.7636 30.6883 25.5589 29.2566C27.9954 28.0131 28.8411 28.6171 30.7424 27.2013C32.2292 26.0929 31.9151 25.5724 33.2867 24.6771C34.9966 23.558 35.7623 24.1886 38.6654 23.2756C39.6542 22.9611 39.381 22.9469 44.0422 20.8437C46.5977 19.6926 46.8152 19.634 47.172 19.6287C50.4543 19.5701 53.2291 24.0163 52.9336 24.3023C52.809 24.4266 52.166 23.6788 50.6847 23.0855C48.2296 22.1067 45.8525 22.5171 45.306 22.6201C42.4848 23.153 41.6763 24.6967 36.7009 28.2263C35.1174 29.3525 33.7681 30.2069 32.8872 30.7505C32.718 31.3997 32.7516 32.0822 32.9838 32.7134C33.467 33.9302 34.5599 34.186 34.6565 35.0511C34.7531 35.9161 33.7216 36.6693 33.2737 37.0068H33.283ZM46.3859 46.6329C48.8317 45.6844 48.9879 45.4428 49.8725 45.4481C50.2833 45.4481 51.4969 45.4641 52.2032 46.2279C52.5414 46.5921 52.4262 46.7608 52.9057 47.4714C53.5172 48.3755 54.1175 48.6971 54.0208 48.9031C53.9019 49.1412 53.0209 48.9529 52.783 48.9031C52.2533 48.7948 49.9413 48.8125 45.3172 48.841C42.9141 48.8587 41.5016 48.9315 41.4718 48.7166C41.4551 48.6029 41.8324 48.4715 42.1892 48.3436C43.5962 47.8338 44.9659 47.1818 46.3766 46.6329H46.3859ZM42.8323 40.2789C44.2765 38.6993 46.2451 37.6424 48.408 37.2857C48.9656 37.1934 50.4171 37.0051 51.7329 37.5362C52.0049 37.6233 52.236 37.7995 52.3853 38.0336C52.6548 38.5221 52.3965 39.1829 52.0601 39.5612C51.4263 40.2718 50.3558 40.1883 50.3 40.183C49.0102 40.064 48.8856 38.8969 47.698 38.753C47.3152 38.7033 46.6238 39.0106 45.254 39.6252C43.6631 40.3357 42.7691 40.8402 42.652 40.6821C42.5963 40.643 42.6037 40.5471 42.823 40.2789H42.8323ZM53.7216 95.0246C53.1882 95.3798 52.3072 95.8275 50.8836 95.9127C43.2635 94.1541 34.7885 91.6086 34.8461 88.6865C34.874 87.3134 36.7697 86.3204 37.7789 85.7875C43.7523 82.6522 47.4638 87.4804 56.5503 86.1623C59.2397 85.7733 62.9512 84.7643 69.0659 84.2936C70.8761 84.1532 72.9596 84.1657 73.2941 84.9934C73.6286 85.8212 72.1232 87.1393 71.1586 87.7912C70.4616 88.262 69.5398 88.7238 65.4398 89.429C62.6892 89.8998 61.5517 89.9619 59.327 90.5943C58.0428 90.9638 57.3885 91.1556 56.7845 91.5766C55.1769 92.7011 55.2215 93.9925 53.7123 95.0246H53.7216ZM63.782 46.7893C63.8377 46.537 64.8358 46.569 64.9231 46.5708C65.2484 46.5832 65.4714 46.5939 65.6405 46.7484C65.8543 46.9527 65.9305 47.3293 65.7725 47.4962C65.6145 47.6632 65.1852 47.5513 64.8265 47.4341C64.4678 47.3168 63.7262 47.0131 63.782 46.7893ZM67.107 58.8454C67.2296 58.0709 68.0362 57.6588 69.0008 57.165C70.0806 56.609 71.0118 56.1329 71.6028 56.5397C72.1418 56.911 72.0897 57.8009 72.06 58.0976L70.168 59.7816L67.4434 60.0285C67.1847 59.6862 67.0651 59.2657 67.107 58.8454V58.8454ZM99.563 108.484C95.411 106.411 91.8853 105.686 89.3558 105.422C85.003 104.969 81.7747 105.681 75.6173 104.581C73.9353 104.283 72.5693 103.942 71.6567 103.693C69.7372 103.07 67.7764 102.57 65.7874 102.196C64.7354 101.999 63.7244 101.84 62.7579 101.73C62.3456 101.571 61.9197 101.445 61.4848 101.356C60.5416 101.163 59.5696 101.139 58.6171 101.283C57.9108 98.5968 57.2045 95.911 56.4983 93.2251C56.723 92.9875 56.9686 92.7688 57.2324 92.5714C59.0204 91.2018 61.0964 91.1006 62.0238 91.0277C63.9288 90.8821 66.6089 90.4398 70.6772 89.3455C73.7532 87.0363 74.4761 85.0823 74.5412 83.6914C74.5895 82.6113 74.2382 81.9292 74.2977 79.437C74.333 77.6997 74.5338 76.6836 75.2735 75.9322C75.7716 75.426 76.0336 75.577 76.3998 75.044C76.7417 74.5092 76.9226 73.8945 76.9226 73.2677C76.9226 72.6409 76.7417 72.0262 76.3998 71.4913C76.1676 71.144 75.868 70.8425 75.5169 70.6031C76.343 70.0067 76.9443 69.1702 77.2305 68.2193C77.3848 67.6544 77.3235 67.0362 77.2045 65.7963C76.9889 63.5545 76.5447 63.0749 76.3514 62.892C76.0074 62.5884 75.5844 62.3786 75.1266 62.2844C74.3832 61.7693 73.6268 61.2577 72.8796 60.7426L75.9091 58.078C76.3775 56.8114 76.3075 55.4198 75.7139 54.202C75.1997 53.2073 74.3572 52.402 73.3164 51.9105L67.7928 49.3898C67.6608 48.9688 67.5307 48.5461 67.4025 48.1286L66.3282 47.7556C65.9193 46.042 65.5117 44.3278 65.1053 42.613C65.1778 41.9517 65.0377 41.285 64.7038 40.7017V40.7017C64.7006 40.694 64.6962 40.6868 64.6908 40.6803C64.6388 40.5933 64.5812 40.5027 64.518 40.421C64.4548 40.3393 64.3619 40.2274 64.2838 40.1421C64.2503 40.1084 64.2169 40.0764 64.1797 40.0444C63.8952 39.7729 63.5623 39.5521 63.1965 39.3925L59.1895 32.756L59.433 32.2888L59.7266 31.8234C59.7099 31.6671 59.695 31.5126 59.6764 31.3545C59.6132 30.9796 59.5463 30.6084 59.4906 30.2336L58.4609 29.6722L57.7287 29.1127C57.8439 28.8462 57.9573 28.5798 58.0725 28.3169V27.5228C58.2175 27.1498 58.3643 26.7756 58.513 26.4002C58.6747 26.7146 58.8382 27.0255 58.9999 27.3363C59.114 27.5502 59.2729 27.7394 59.4666 27.8921C59.6604 28.0449 59.8848 28.158 60.1262 28.2245C60.4646 28.3088 60.8217 28.2927 61.1503 28.1783C61.3157 27.7253 61.2506 27.5051 61.1503 27.3843C60.9997 27.2067 60.7432 27.2404 60.221 27.0095C60.068 26.9432 59.9207 26.8654 59.7805 26.7768C59.7594 26.4187 59.6231 26.0756 59.3902 25.7944C59.2044 25.5795 59.0538 25.5351 58.9014 25.329C58.7038 25.0217 58.6341 24.6546 58.7063 24.3005C58.5762 24.1229 58.4442 23.9275 58.3141 23.7392C58.5768 23.5533 58.837 23.3662 59.0947 23.1779C58.6614 23.0585 58.2207 22.9653 57.7751 22.899C57.4852 22.8546 57.2064 22.8261 56.9443 22.8048C56.9629 22.4762 56.9778 22.1511 56.9927 21.8225L58.1673 22.0108L59.8288 22.1049C59.7049 21.887 59.5748 21.6686 59.4385 21.4495L57.7268 21.3109C57.6741 20.8449 57.7667 20.3744 57.9929 19.9585C58.219 19.5426 58.5687 19.1998 58.9981 18.9732L58.4777 19.0283C58.8494 19.0283 57.7472 19.0425 57.3848 19.0283C57.0076 19.007 56.6338 18.9475 56.2697 18.8506C56.2836 18.5851 56.2674 18.3189 56.2214 18.0566C56.1814 17.8185 56.1192 17.5843 56.0355 17.3567C55.7737 17.0439 55.4597 16.7744 55.1062 16.5591C54.8101 16.3934 54.4991 16.2531 54.177 16.1399C53.7346 15.9623 53.3648 15.8468 53.1027 15.7651L51.4597 16.1168C51.1741 16.1541 50.8834 16.1044 50.629 15.9747C50.4561 15.8806 50.3058 15.753 50.1877 15.6C50.0696 15.447 49.9863 15.2721 49.9432 15.0865C50.2703 14.6975 50.5955 14.3067 50.9208 13.9177L52.3407 13.5447C52.7459 13.2338 53.1529 12.9194 53.5618 12.6085L53.1324 12.1928C52.9354 12.3942 52.7397 12.5967 52.5451 12.8004C52.0646 12.8225 51.588 12.7081 51.1754 12.4717C50.8563 12.2858 50.5886 12.0293 50.3948 11.7239L49.4655 10.7416L48.2853 10.3259L47.4991 9.29738C47.3057 9.23849 47.1358 9.12443 47.0122 8.97053C46.9193 8.84263 46.8579 8.69623 46.8328 8.54238C46.8077 8.38852 46.8195 8.23123 46.8672 8.08235C46.9788 7.60096 47.0958 7.11779 47.2074 6.63462L45.8841 5.83525C46.0476 6.33264 46.2093 6.83357 46.3729 7.33095C45.7856 7.36292 45.1983 7.3949 44.6109 7.42332C44.5292 7.76616 44.4511 8.109 44.3693 8.45361C44.0088 9.18547 43.6501 9.91911 43.2914 10.6474C43.2282 10.0719 43.1613 9.49633 43.1055 8.92079L42.1298 7.79813C41.5202 7.22259 40.913 6.64409 40.3084 6.06263L40.6002 6.99877L42.5071 8.91546C42.4922 9.75568 42.4736 10.5959 42.4587 11.4397L41.2897 11.3917C41.1633 10.9565 41.0314 10.5195 40.9013 10.0825C40.9979 9.85161 41.0964 9.6189 41.1931 9.38265L40.5091 9.24231C40.314 9.40041 40.1188 9.55495 39.9218 9.71127L39.4832 10.4591C39.4014 10.8476 39.319 11.2372 39.236 11.628C39.091 11.5161 38.9442 11.4095 38.7992 11.2993L38.0168 11.0205C37.9203 10.7957 37.8858 10.5511 37.9164 10.3099C37.987 9.777 38.4034 9.29738 39 9.02205C38.7282 9.14424 38.465 9.28308 38.2119 9.43771C37.6934 9.74858 37.4481 9.99371 37.2325 9.90667C37.0169 9.81963 37.0912 9.53186 36.8422 9.15883C36.6713 8.9162 36.435 8.72224 36.1582 8.5975L35.7661 8.17827L36.45 7.33628C36.3032 7.37003 36.1601 7.40556 36.017 7.44286C30.4943 10.068 25.4117 13.465 20.9366 17.5219C17.4402 20.7632 14.3116 24.3482 11.6029 28.2174C14.2643 24.3146 17.3971 20.7247 20.9366 17.5219C22.2587 16.2939 23.5962 15.1469 24.9492 14.0811C27.4034 12.1309 30.0182 10.3731 32.7682 8.82487C33.6046 8.35946 34.3164 7.98998 34.8256 7.73774L35.8144 7.48372C35.8813 7.46595 35.9501 7.44819 36.017 7.43398C44.5485 3.38156 53.9483 1.27874 63.4753 1.29132C97.6041 1.29132 125.365 27.8302 125.365 60.4441C125.373 80.2079 115.184 97.7371 99.563 108.484Z" fill="#680813" stroke="#680813" stroke-miterlimit="10"/>
</svg>
